<?xml version="1.0" encoding="utf-8"?>
<!-- Generator: Adobe Illustrator 14.0.0, SVG Export Plug-In . SVG Version: 6.00 Build 43363)  -->
<!DOCTYPE svg PUBLIC "-//W3C//DTD SVG 1.1//EN" "http://www.w3.org/Graphics/SVG/1.1/DTD/svg11.dtd">
<svg version="1.1" xmlns="http://www.w3.org/2000/svg" xmlns:xlink="http://www.w3.org/1999/xlink" x="0px" y="0px" width="74px"
	 height="74px" viewBox="-364.573 282.731 74 74" enable-background="new -364.573 282.731 74 74" xml:space="preserve">
<g id="svg2">
	<defs>
		
	</defs>
	<path opacity="0.75" fill-rule="evenodd" clip-rule="evenodd" fill="#993366" d="M-364.573,319.731c0,20.43,16.57,37,37,37
		s37-16.57,37-37s-16.57-37-37-37S-364.573,299.302-364.573,319.731z M-311.683,333.751c0,1.391-0.51,2.59-1.51,3.58
		c-1.21,0.98-2.89,1.33-4.85,1.311c-2.94,0-7.67,0.41-12.35-0.5c-1.7-0.33-4.1-1.811-5.07-2.48c-3.66-2.539-6.11-6.97-6.11-11.59
		v-20.26c0.09-3.07,2.19-5.01,4.94-5.08c1.4,0,2.61,0.5,3.61,1.5c1.01,0.99,1.51,2.189,1.51,3.58v5.08h14.55c6.9,0,7.47,9.92,0,9.92
		h-14.61v5.26c0.65,4.12,3.73,4.7,6.98,4.52c2.8,0.16,5.75,0.07,6.46,0.07C-314.533,328.202-311.844,329.901-311.683,333.751z"/>
</g>
<g id="Layer_2">
</g>
</svg>
