<?xml version="1.0" encoding="utf-8"?>
<!-- Generator: Adobe Illustrator 16.0.0, SVG Export Plug-In . SVG Version: 6.00 Build 0)  -->
<!DOCTYPE svg PUBLIC "-//W3C//DTD SVG 1.1//EN" "http://www.w3.org/Graphics/SVG/1.1/DTD/svg11.dtd">
<svg version="1.1" id="Layer_1" xmlns="http://www.w3.org/2000/svg" xmlns:xlink="http://www.w3.org/1999/xlink" x="0px" y="0px"
	 width="103.5px" height="102.5px" viewBox="0 0 103.5 102.5" enable-background="new 0 0 103.5 102.5" xml:space="preserve">
<path fill-rule="evenodd" clip-rule="evenodd" fill="#9A3467" d="M-28,51c0,43.08,34.92,78,78,78s78-34.92,78-78S93.08-27,50-27
	S-28,7.92-28,51z"/>
<path fill-rule="evenodd" clip-rule="evenodd" fill="#FFFFFF" d="M52.185,94.926c0,0-28.918-37.448-29.617-53.921
	c-1.376-32.43,25.891-33.93,25.891-33.93S76.1,6.245,77.468,38.503C78.188,55.49,52.185,94.926,52.185,94.926z M49.33,23.54
	c-6.064,0.258-10.772,5.382-10.515,11.446c0.256,6.064,5.382,10.773,11.446,10.516c6.064-0.257,10.773-5.382,10.516-11.447
	C60.52,27.99,55.396,23.282,49.33,23.54z"/>
<path display="none" fill-rule="evenodd" clip-rule="evenodd" fill="#FFFFFF" d="M33.529,40.089
	c1.537-1.628,2.847-2.937,3.931-3.932c3.523-2.711,6.461-5.919,8.81-9.622c4.788-7.59,4.428-13.962-1.084-19.11
	c6.145,1.083,10.798,4.156,13.959,9.215c2.621,4.159,3.886,8.854,3.796,14.097c0,1.354-0.857,5.511-2.575,12.468
	c-1.083,3.977-0.36,6.146,2.168,6.507c2.53,0.543,4.743-1.763,6.642-6.912l2.033-7.861c0-3.254,1.13,1.58,3.389,14.504
	c1.355,8.402,0.452,15.358-2.711,20.87c-2.258,3.616-5.781,6.822-10.57,9.625c-2.894,1.626-5.422,4.562-7.592,8.811
	c-1.173,2.168-1.988,4.11-2.438,5.826c-0.362-2.078-1.311-4.426-2.847-7.047c-3.072-5.422-7.5-9.76-13.283-13.011
	c-10.21-6.417-12.876-14.729-7.997-24.939C28.605,46.413,30.728,43.252,33.529,40.089z M38.679,22.469v1.49
	c0,1.266-0.27,2.846-0.812,4.744c-0.812,1.715-1.852,3.118-3.117,4.201c-1.808,1.447-3.525,3.613-5.15,6.507
	c-1.085-0.813-1.626-3.073-1.626-6.777c-0.09-4.249,1.039-7.229,3.388-8.944c2.439-1.719,3.66-3.842,3.66-6.372l-0.408-3.389
	C37.144,16.187,38.499,19.035,38.679,22.469z"/>
</svg>
