<?xml version="1.0" encoding="utf-8"?>
<!-- Generator: Adobe Illustrator 16.0.4, SVG Export Plug-In . SVG Version: 6.00 Build 0)  -->
<!DOCTYPE svg PUBLIC "-//W3C//DTD SVG 1.0//EN" "http://www.w3.org/TR/2001/REC-SVG-20010904/DTD/svg10.dtd">
<svg version="1.0" id="Layer_2" xmlns="http://www.w3.org/2000/svg" xmlns:xlink="http://www.w3.org/1999/xlink" x="0px" y="0px"
	 width="74px" height="74px" viewBox="-364.573 282.731 74 74" enable-background="new -364.573 282.731 74 74"
	 xml:space="preserve">
<path opacity="0.75" fill="#993366" d="M-327.573,282.731c-20.43,0-37,16.57-37,37s16.57,37,37,37s37-16.57,37-37
	S-307.143,282.731-327.573,282.731z M-340.261,319.731c0,0.332-0.033,0.654-0.081,0.975l19.45,11.229
	c1.112-0.891,2.52-1.426,4.054-1.426c3.588,0,6.497,2.908,6.497,6.498c0,3.588-2.909,6.496-6.497,6.496s-6.497-2.908-6.497-6.496
	c0-0.332,0.033-0.656,0.081-0.975l-19.45-11.229c-1.112,0.889-2.52,1.424-4.054,1.424c-3.588,0-6.497-2.908-6.497-6.496
	s2.909-6.496,6.497-6.496c1.535,0,2.942,0.535,4.054,1.424l19.45-11.229c-0.048-0.318-0.081-0.643-0.081-0.973
	c0-3.59,2.909-6.498,6.497-6.498s6.497,2.908,6.497,6.498c0,3.588-2.909,6.496-6.497,6.496c-1.535,0-2.942-0.535-4.054-1.424
	l-19.45,11.229C-340.294,319.077-340.261,319.399-340.261,319.731z"/>
</svg>
